<svg width="628" height="160" viewBox="0 0 628 160" fill="none" xmlns="http://www.w3.org/2000/svg">
<g clip-path="url(#clip0_6_471)">
<circle cx="80" cy="80" r="60" fill="black"/>
<path d="M176.987 108.553C173.195 108.553 169.93 108.158 167.191 107.368C164.505 106.578 162.477 105.683 161.108 104.682C159.791 103.787 159.133 102.891 159.133 101.996C159.133 101.311 159.37 100.495 159.844 99.547C160.371 98.599 160.976 97.7827 161.661 97.098C162.346 96.3607 162.899 95.992 163.32 95.992C163.531 95.992 163.794 96.071 164.11 96.229C164.426 96.387 164.821 96.5977 165.295 96.861C166.348 97.3877 167.718 97.9933 169.403 98.678C171.141 99.3627 173.195 99.705 175.565 99.705C177.04 99.705 178.409 99.4943 179.673 99.073C180.99 98.599 182.043 97.8617 182.833 96.861C183.623 95.8077 184.018 94.491 184.018 92.911C184.018 91.1203 183.412 89.6983 182.201 88.645C181.042 87.5917 179.541 86.67 177.698 85.88C175.855 85.09 173.932 84.2473 171.931 83.352C170.456 82.72 169.008 82.009 167.586 81.219C166.217 80.3763 164.979 79.3757 163.873 78.217C162.767 77.0057 161.872 75.5573 161.187 73.872C160.555 72.134 160.239 70.0537 160.239 67.631C160.239 64.155 161.082 61.2847 162.767 59.02C164.505 56.7027 166.77 54.991 169.561 53.885C172.352 52.7263 175.354 52.147 178.567 52.147C180.147 52.147 181.701 52.2787 183.228 52.542C184.755 52.7527 186.151 53.095 187.415 53.569C188.679 53.9903 189.732 54.4907 190.575 55.07C191.681 55.8073 192.234 56.5973 192.234 57.44C192.234 58.0193 192.023 58.783 191.602 59.731C191.233 60.679 190.759 61.5217 190.18 62.259C189.601 62.9963 189.048 63.365 188.521 63.365C188.258 63.365 187.915 63.2597 187.494 63.049C187.125 62.8383 186.599 62.6013 185.914 62.338C185.177 62.022 184.255 61.7323 183.149 61.469C182.096 61.153 180.779 60.995 179.199 60.995C177.198 60.995 175.565 61.2847 174.301 61.864C173.09 62.3907 172.221 63.1017 171.694 63.997C171.167 64.8923 170.904 65.893 170.904 66.999C170.904 68.579 171.325 69.8693 172.168 70.87C173.011 71.8707 174.117 72.7133 175.486 73.398C176.908 74.03 178.462 74.662 180.147 75.294C181.78 75.9787 183.439 76.7423 185.124 77.585C186.862 78.375 188.442 79.3757 189.864 80.587C191.339 81.7983 192.497 83.3257 193.34 85.169C194.235 87.0123 194.683 89.277 194.683 91.963C194.683 94.8597 194.209 97.3613 193.261 99.468C192.313 101.575 190.996 103.313 189.311 104.682C187.626 105.999 185.73 106.973 183.623 107.605C181.516 108.237 179.304 108.553 176.987 108.553ZM212.063 108.553C210.536 108.553 209.087 108.342 207.718 107.921C206.401 107.5 205.243 106.815 204.242 105.867C203.241 104.919 202.451 103.681 201.872 102.154C201.293 100.574 201.003 98.678 201.003 96.466V74.662H198.87C197.448 74.662 196.737 73.5297 196.737 71.265V70.08C196.737 67.8153 197.448 66.683 198.87 66.683H201.003L202.03 58.941C202.241 57.4137 203.452 56.65 205.664 56.65H207.56C209.825 56.65 210.957 57.4137 210.957 58.941V66.683H215.776C217.198 66.683 217.909 67.8153 217.909 70.08V71.265C217.909 73.5297 217.198 74.662 215.776 74.662H210.957V96.308C210.957 97.888 211.247 98.994 211.826 99.626C212.405 100.258 213.222 100.574 214.275 100.574C214.96 100.574 215.486 100.521 215.855 100.416C216.276 100.311 216.619 100.258 216.882 100.258C217.356 100.258 217.751 100.627 218.067 101.364C218.383 102.101 218.62 102.891 218.778 103.734C218.989 104.524 219.094 105.024 219.094 105.235C219.094 106.236 218.673 106.999 217.83 107.526C216.987 108 216.013 108.29 214.907 108.395C213.854 108.5 212.906 108.553 212.063 108.553ZM234.562 108.553C230.454 108.553 227.373 107.5 225.319 105.393C223.265 103.234 222.238 100.416 222.238 96.94C222.238 94.728 222.686 92.7267 223.581 90.936C224.476 89.1453 225.846 87.618 227.689 86.354C229.585 85.0373 232.06 84.063 235.115 83.431C238.17 82.7463 241.856 82.3777 246.175 82.325V79.323C246.175 77.743 245.622 76.479 244.516 75.531C243.463 74.583 241.672 74.109 239.144 74.109C237.09 74.109 235.299 74.346 233.772 74.82C232.245 75.294 231.007 75.768 230.059 76.242C229.164 76.716 228.558 76.953 228.242 76.953C227.768 76.953 227.241 76.5843 226.662 75.847C226.083 75.1097 225.582 74.2933 225.161 73.398C224.792 72.5027 224.608 71.8443 224.608 71.423C224.608 70.5803 225.266 69.764 226.583 68.974C227.9 68.1313 229.69 67.4467 231.955 66.92C234.272 66.3933 236.827 66.13 239.618 66.13C243.463 66.13 246.596 66.683 249.019 67.789C251.442 68.8423 253.232 70.3433 254.391 72.292C255.55 74.188 256.129 76.4263 256.129 79.007V94.886C256.129 97.414 256.208 99.4153 256.366 100.89C256.524 102.312 256.682 103.392 256.84 104.129C256.998 104.814 257.077 105.367 257.077 105.788C257.077 106.209 256.787 106.578 256.208 106.894C255.629 107.157 254.918 107.394 254.075 107.605C253.232 107.763 252.416 107.895 251.626 108C250.836 108.053 250.23 108.079 249.809 108.079C249.019 108.079 248.44 107.789 248.071 107.21C247.702 106.578 247.439 105.841 247.281 104.998C247.123 104.103 246.965 103.313 246.807 102.628C246.333 103.207 245.569 103.971 244.516 104.919C243.463 105.867 242.12 106.71 240.487 107.447C238.854 108.184 236.879 108.553 234.562 108.553ZM237.248 100.574C239.249 100.574 240.987 100.074 242.462 99.073C243.989 98.0197 245.227 96.782 246.175 95.36V89.356C244.226 89.356 242.409 89.4613 240.724 89.672C239.091 89.8827 237.617 90.225 236.3 90.699C235.036 91.173 234.062 91.8577 233.377 92.753C232.692 93.5957 232.35 94.6753 232.35 95.992C232.35 97.414 232.745 98.5463 233.535 99.389C234.378 100.179 235.615 100.574 237.248 100.574ZM279.902 124.748C276.057 124.748 272.792 124.353 270.106 123.563C267.472 122.826 265.471 121.641 264.102 120.008C262.732 118.428 262.048 116.427 262.048 114.004C262.048 111.897 262.68 110.028 263.944 108.395C265.208 106.762 266.946 105.498 269.158 104.603L269.237 104.366C268.183 103.734 267.367 102.891 266.788 101.838C266.208 100.785 265.919 99.5733 265.919 98.204C265.919 96.6767 266.314 95.3073 267.104 94.096C267.946 92.8847 269.079 91.8313 270.501 90.936C268.447 89.8827 266.84 88.4343 265.682 86.591C264.576 84.695 264.023 82.4303 264.023 79.797C264.023 76.6897 264.707 74.1353 266.077 72.134C267.499 70.1327 269.447 68.6317 271.923 67.631C274.451 66.6303 277.295 66.13 280.455 66.13C281.455 66.13 282.43 66.1827 283.378 66.288C284.326 66.3407 285.221 66.4723 286.064 66.683H299.336C300.758 66.683 301.469 67.8153 301.469 70.08V71.265C301.469 73.4243 300.863 74.504 299.652 74.504C299.23 74.504 298.493 74.4513 297.44 74.346C296.439 74.188 295.649 74.03 295.07 73.872L294.991 74.109C295.623 74.899 296.097 75.7943 296.413 76.795C296.781 77.743 296.966 78.7437 296.966 79.797C296.966 82.6937 296.281 85.1163 294.912 87.065C293.595 89.0137 291.725 90.4883 289.303 91.489C286.933 92.4897 284.168 92.99 281.008 92.99C278.638 92.99 277.031 93.2797 276.189 93.859C275.346 94.3857 274.925 95.202 274.925 96.308C274.925 97.4667 275.53 98.3093 276.742 98.836C277.953 99.3627 279.48 99.7313 281.324 99.942C283.22 100.153 285.221 100.416 287.328 100.732C289.487 101.101 291.515 101.68 293.411 102.47C295.307 103.207 296.834 104.313 297.993 105.788C299.151 107.263 299.731 109.29 299.731 111.871C299.731 114.504 298.941 116.769 297.361 118.665C295.781 120.614 293.49 122.115 290.488 123.168C287.538 124.221 284.01 124.748 279.902 124.748ZM280.771 116.848C283.931 116.848 286.274 116.427 287.802 115.584C289.329 114.794 290.093 113.662 290.093 112.187C290.093 111.239 289.724 110.502 288.987 109.975C288.302 109.448 287.328 109.027 286.064 108.711C284.8 108.448 283.299 108.211 281.561 108C279.875 107.789 278.032 107.552 276.031 107.289C274.714 107.816 273.634 108.5 272.792 109.343C272.002 110.238 271.607 111.239 271.607 112.345C271.607 113.82 272.318 114.926 273.74 115.663C275.214 116.453 277.558 116.848 280.771 116.848ZM280.455 85.564C282.403 85.564 284.062 85.1163 285.432 84.221C286.801 83.3257 287.486 81.772 287.486 79.56C287.486 77.4007 286.801 75.8733 285.432 74.978C284.062 74.03 282.403 73.556 280.455 73.556C278.506 73.556 276.847 74.03 275.478 74.978C274.108 75.8733 273.424 77.4007 273.424 79.56C273.424 81.772 274.108 83.3257 275.478 84.221C276.847 85.1163 278.506 85.564 280.455 85.564ZM322.512 108.553C315.56 108.553 310.451 106.71 307.186 103.023C303.92 99.3363 302.288 94.2013 302.288 87.618C302.288 82.562 303.051 78.454 304.579 75.294C306.159 72.134 308.371 69.8167 311.215 68.342C314.059 66.8673 317.403 66.13 321.248 66.13C325.25 66.13 328.463 67.0253 330.886 68.816C333.361 70.554 335.178 72.9767 336.337 76.084C337.495 79.1387 338.075 82.641 338.075 86.591C338.075 86.9597 337.838 87.4863 337.364 88.171C336.942 88.8557 336.442 89.4613 335.863 89.988C335.283 90.5147 334.836 90.778 334.52 90.778H312.716C312.979 94.3067 313.98 96.8347 315.718 98.362C317.456 99.8367 319.826 100.574 322.828 100.574C324.724 100.574 326.356 100.337 327.726 99.863C329.148 99.389 330.306 98.9413 331.202 98.52C332.15 98.046 332.782 97.809 333.098 97.809C333.572 97.809 334.098 98.1777 334.678 98.915C335.257 99.5997 335.731 100.363 336.1 101.206C336.521 101.996 336.732 102.628 336.732 103.102C336.732 103.945 336.258 104.708 335.31 105.393C334.414 106.025 333.229 106.604 331.755 107.131C330.28 107.605 328.726 107.947 327.094 108.158C325.461 108.421 323.934 108.553 322.512 108.553ZM312.716 83.668H328.2C328.2 80.7187 327.62 78.4013 326.462 76.716C325.356 74.978 323.591 74.109 321.169 74.109C318.904 74.109 317.008 74.8463 315.481 76.321C314.006 77.7957 313.084 80.2447 312.716 83.668ZM358.067 108.158C357.277 108.158 356.566 108.079 355.934 107.921C355.354 107.71 355.012 107.368 354.907 106.894L341.398 54.991C341.345 54.833 341.292 54.6487 341.24 54.438C341.187 54.2273 341.161 54.043 341.161 53.885C341.161 52.9897 342.293 52.542 344.558 52.542H345.348C346.138 52.542 346.822 52.6473 347.402 52.858C348.034 53.016 348.402 53.332 348.508 53.806L357.751 89.83C358.067 90.936 358.356 92.1473 358.62 93.464C358.883 94.728 359.12 95.9393 359.331 97.098C359.541 98.2567 359.673 99.231 359.726 100.021H360.042C360.252 99.1783 360.437 98.3357 360.595 97.493C360.805 96.6503 361.016 95.8077 361.227 94.965C361.437 94.1223 361.648 93.2797 361.859 92.437L371.418 53.885C371.523 53.3583 371.865 53.016 372.445 52.858C373.024 52.6473 373.709 52.542 374.499 52.542H375.763C376.553 52.542 377.237 52.6473 377.817 52.858C378.396 53.016 378.738 53.3583 378.844 53.885L387.929 89.83C388.245 90.936 388.508 92.121 388.719 93.385C388.982 94.649 389.219 95.8603 389.43 97.019C389.64 98.1777 389.772 99.1783 389.825 100.021H390.141C390.351 99.1783 390.536 98.283 390.694 97.335C390.904 96.387 391.115 95.4917 391.326 94.649C391.536 93.8063 391.721 93.0953 391.879 92.516L401.438 53.806C401.543 53.332 401.885 53.016 402.465 52.858C403.097 52.6473 403.808 52.542 404.598 52.542H405.072C407.336 52.542 408.469 52.9897 408.469 53.885C408.469 53.9377 408.442 54.0957 408.39 54.359C408.337 54.6223 408.284 54.833 408.232 54.991L394.565 106.894C394.459 107.368 394.091 107.71 393.459 107.921C392.879 108.079 392.195 108.158 391.405 108.158H388.166C387.376 108.158 386.665 108.079 386.033 107.921C385.453 107.71 385.111 107.368 385.006 106.894L377.501 78.849C376.921 76.6897 376.368 74.2407 375.842 71.502C375.368 68.7633 375.052 66.4197 374.894 64.471H374.578C374.42 66.367 374.156 68.4473 373.788 70.712C373.472 72.924 373.103 74.741 372.682 76.163L364.466 106.894C364.36 107.368 363.992 107.71 363.36 107.921C362.78 108.079 362.096 108.158 361.306 108.158H358.067ZM418.83 108.158C416.723 108.158 415.67 107.579 415.67 106.42V50.33C415.67 49.1713 416.723 48.592 418.83 48.592H419.146C421.253 48.592 422.306 49.1713 422.306 50.33V71.66C423.675 70.2907 425.387 69.053 427.441 67.947C429.548 66.7883 431.865 66.209 434.393 66.209C435.657 66.209 437 66.3933 438.422 66.762C439.897 67.078 441.266 67.6837 442.53 68.579C443.847 69.4743 444.9 70.7647 445.69 72.45C446.533 74.1353 446.954 76.321 446.954 79.007V106.42C446.954 107.579 445.901 108.158 443.794 108.158H443.478C441.371 108.158 440.318 107.579 440.318 106.42V79.639C440.318 77.3217 439.633 75.4783 438.264 74.109C436.947 72.687 434.946 71.976 432.26 71.976C430.785 71.976 429.442 72.2657 428.231 72.845C427.02 73.3717 425.966 74.0037 425.071 74.741C424.176 75.4783 423.491 76.1367 423.017 76.716C422.543 77.2427 422.306 77.506 422.306 77.506V106.42C422.306 107.579 421.253 108.158 419.146 108.158H418.83ZM461.05 108.158C458.943 108.158 457.89 107.579 457.89 106.42V68.263C457.89 67.1043 458.943 66.525 461.05 66.525H461.366C463.473 66.525 464.526 67.1043 464.526 68.263V106.42C464.526 107.579 463.473 108.158 461.366 108.158H461.05ZM461.208 60.995C459.944 60.995 459.049 60.837 458.522 60.521C457.995 60.205 457.732 59.7837 457.732 59.257V54.517C457.732 53.9903 457.995 53.569 458.522 53.253C459.049 52.937 459.944 52.779 461.208 52.779C462.472 52.779 463.367 52.937 463.894 53.253C464.421 53.5163 464.684 53.9377 464.684 54.517V59.257C464.684 59.7837 464.421 60.205 463.894 60.521C463.367 60.837 462.472 60.995 461.208 60.995ZM484.88 108.711C482.51 108.711 480.377 108.421 478.481 107.842C476.585 107.263 475.084 106.578 473.978 105.788C472.872 104.998 472.319 104.313 472.319 103.734C472.319 103.418 472.477 102.944 472.793 102.312C473.109 101.68 473.478 101.101 473.899 100.574C474.321 100.047 474.716 99.784 475.084 99.784C475.295 99.784 475.769 100.047 476.506 100.574C477.244 101.101 478.271 101.627 479.587 102.154C480.957 102.681 482.563 102.944 484.406 102.944C489.568 102.944 492.148 100.995 492.148 97.098C492.148 94.9913 491.385 93.464 489.857 92.516C488.383 91.5153 486.513 90.6463 484.248 89.909C482.405 89.277 480.641 88.5397 478.955 87.697C477.27 86.8017 475.901 85.564 474.847 83.984C473.794 82.404 473.267 80.271 473.267 77.585C473.267 75.373 473.82 73.398 474.926 71.66C476.085 69.922 477.639 68.579 479.587 67.631C481.589 66.6303 483.853 66.13 486.381 66.13C488.172 66.13 489.857 66.288 491.437 66.604C493.017 66.92 494.308 67.3413 495.308 67.868C496.309 68.3947 496.809 68.9477 496.809 69.527C496.809 69.9483 496.651 70.5013 496.335 71.186C496.072 71.8707 495.756 72.4763 495.387 73.003C495.019 73.5297 494.65 73.793 494.281 73.793C494.071 73.793 493.36 73.4507 492.148 72.766C490.937 72.0813 489.252 71.739 487.092 71.739C485.144 71.739 483.485 72.213 482.115 73.161C480.746 74.0563 480.061 75.3467 480.061 77.032C480.061 78.5067 480.483 79.6917 481.325 80.587C482.168 81.4297 483.801 82.246 486.223 83.036C488.646 83.826 490.805 84.774 492.701 85.88C494.597 86.9333 496.098 88.3027 497.204 89.988C498.31 91.6207 498.863 93.7537 498.863 96.387C498.863 98.757 498.231 100.864 496.967 102.707C495.756 104.55 494.097 106.025 491.99 107.131C489.884 108.184 487.514 108.711 484.88 108.711ZM509.456 124.432C507.349 124.432 506.296 123.853 506.296 122.694V78.691C506.296 76.5317 506.217 74.741 506.059 73.319C505.901 71.897 505.743 70.8173 505.585 70.08C505.427 69.29 505.348 68.8423 505.348 68.737C505.348 68.3683 505.506 68.0787 505.822 67.868C506.191 67.6047 506.612 67.4203 507.086 67.315C507.56 67.157 508.034 67.0517 508.508 66.999C508.982 66.9463 509.351 66.92 509.614 66.92C510.246 66.92 510.72 67.2097 511.036 67.789C511.405 68.3683 511.668 69.0793 511.826 69.922C512.037 70.712 512.221 71.4493 512.379 72.134C514.328 70.1327 516.329 68.658 518.383 67.71C520.49 66.7093 522.675 66.209 524.94 66.209C528.205 66.209 530.97 67.1307 533.235 68.974C535.552 70.8173 537.29 73.3453 538.449 76.558C539.66 79.718 540.266 83.3257 540.266 87.381C540.266 94.2277 538.765 99.468 535.763 103.102C532.761 106.683 528.916 108.474 524.229 108.474C521.806 108.474 519.7 108.105 517.909 107.368C516.118 106.578 514.459 105.604 512.932 104.445V122.694C512.932 123.853 511.879 124.432 509.772 124.432H509.456ZM522.728 102.628C526.257 102.628 528.89 101.364 530.628 98.836C532.419 96.2553 533.314 92.6213 533.314 87.934C533.314 82.8253 532.471 78.9017 530.786 76.163C529.101 73.3717 526.704 71.976 523.597 71.976C521.859 71.976 520.042 72.45 518.146 73.398C516.303 74.2933 514.565 75.6363 512.932 77.427V99.073C514.354 100.232 515.881 101.127 517.514 101.759C519.199 102.338 520.937 102.628 522.728 102.628ZM566.118 108.474C559.587 108.474 554.716 106.762 551.503 103.339C548.343 99.9157 546.763 94.6753 546.763 87.618C546.763 82.9307 547.448 79.007 548.817 75.847C550.239 72.687 552.319 70.2907 555.058 68.658C557.797 67.0253 561.167 66.209 565.17 66.209C568.804 66.209 571.806 66.999 574.176 68.579C576.599 70.159 578.416 72.4763 579.627 75.531C580.838 78.5857 581.444 82.3513 581.444 86.828C581.444 87.144 581.286 87.5653 580.97 88.092C580.707 88.566 580.364 89.0137 579.943 89.435C579.522 89.8563 579.153 90.067 578.837 90.067H553.873C554.189 94.4383 555.321 97.651 557.27 99.705C559.219 101.759 562.142 102.786 566.039 102.786C568.356 102.786 570.305 102.523 571.885 101.996C573.518 101.417 574.808 100.864 575.756 100.337C576.704 99.7577 577.31 99.468 577.573 99.468C577.942 99.468 578.337 99.7313 578.758 100.258C579.179 100.785 579.548 101.364 579.864 101.996C580.18 102.628 580.338 103.102 580.338 103.418C580.338 103.892 579.969 104.419 579.232 104.998C578.495 105.577 577.468 106.13 576.151 106.657C574.887 107.184 573.386 107.631 571.648 108C569.963 108.316 568.119 108.474 566.118 108.474ZM553.873 84.379H574.413C574.413 80.2183 573.623 77.111 572.043 75.057C570.463 72.9503 568.093 71.897 564.933 71.897C561.51 71.897 558.876 72.9503 557.033 75.057C555.19 77.111 554.136 80.2183 553.873 84.379ZM592.904 108.158C590.797 108.158 589.744 107.579 589.744 106.42V78.691C589.744 76.5317 589.665 74.741 589.507 73.319C589.349 71.897 589.191 70.8173 589.033 70.08C588.875 69.29 588.796 68.8423 588.796 68.737C588.796 68.3683 588.954 68.0787 589.27 67.868C589.639 67.6047 590.06 67.4203 590.534 67.315C591.008 67.157 591.482 67.0517 591.956 66.999C592.43 66.9463 592.799 66.92 593.062 66.92C593.694 66.92 594.168 67.2097 594.484 67.789C594.853 68.3683 595.116 69.0793 595.274 69.922C595.485 70.712 595.669 71.4493 595.827 72.134C597.196 70.238 598.645 68.7897 600.172 67.789C601.752 66.7357 603.358 66.209 604.991 66.209C606.518 66.209 607.651 66.4723 608.388 66.999C609.178 67.473 609.573 68.2367 609.573 69.29C609.573 69.764 609.494 70.3433 609.336 71.028C609.231 71.7127 609.046 72.3183 608.783 72.845C608.572 73.319 608.309 73.556 607.993 73.556C607.466 73.556 606.94 73.4243 606.413 73.161C605.939 72.845 605.017 72.687 603.648 72.687C602.279 72.687 601.041 73.082 599.935 73.872C598.829 74.662 597.96 75.4783 597.328 76.321C596.696 77.111 596.38 77.506 596.38 77.506V106.42C596.38 107.579 595.327 108.158 593.22 108.158H592.904Z" fill="black"/>
<path fill-rule="evenodd" clip-rule="evenodd" d="M64 48C64 40.483 70.9355 34 80 34C89.0645 34 96 40.483 96 48V50V60C96 61.1046 96.8954 62 98 62C99.1046 62 100 61.1046 100 60V50V48C100 37.8439 90.8177 30 80 30C69.1823 30 60 37.8439 60 48V68C60 69.1046 60.8954 70 62 70H96V88C96 95.517 89.0645 102 80 102C70.9355 102 64 95.517 64 88L64 86L64 76C64 74.8954 63.1046 74 62 74C60.8954 74 60 74.8954 60 76V86V88C60 97.5243 68.0754 105.015 78.002 105.91C78.0007 105.94 78 105.97 78 106V116.033C67.8934 116.365 60 119.186 60 122.618V124.382C60 128.037 68.9543 131 80 131C91.0457 131 100 128.037 100 124.382V122.618C100 119.186 92.1066 116.365 82 116.033V106C82 105.97 81.9993 105.94 81.998 105.91C91.9246 105.015 100 97.5243 100 88V68C100 66.8954 99.1046 66 98 66H64L64 48Z" fill="white"/>
<path fill-rule="evenodd" clip-rule="evenodd" d="M80 60C79.4477 60 79 59.5523 79 59L79 42C79 41.4477 79.4477 41 80 41C80.5523 41 81 41.4477 81 42L81 59C81 59.5523 80.5523 60 80 60Z" fill="white"/>
<path fill-rule="evenodd" clip-rule="evenodd" d="M84 63C83.4477 63 83 62.5523 83 62L83 39C83 38.4477 83.4477 38 84 38C84.5523 38 85 38.4477 85 39L85 62C85 62.5523 84.5523 63 84 63Z" fill="white"/>
<path fill-rule="evenodd" clip-rule="evenodd" d="M88 56C87.4477 56 87 55.5523 87 55L87 46C87 45.4477 87.4477 45 88 45C88.5523 45 89 45.4477 89 46L89 55C89 55.5523 88.5523 56 88 56Z" fill="white"/>
<path fill-rule="evenodd" clip-rule="evenodd" d="M68 52C67.4477 52 67 51.5523 67 51L67 50C67 49.4477 67.4477 49 68 49C68.5523 49 69 49.4477 69 50L69 51C69 51.5523 68.5523 52 68 52Z" fill="white"/>
<path fill-rule="evenodd" clip-rule="evenodd" d="M92 53C91.4477 53 91 52.5523 91 52L91 49C91 48.4477 91.4477 48 92 48C92.5523 48 93 48.4477 93 49L93 52C93 52.5523 92.5523 53 92 53Z" fill="white"/>
<path fill-rule="evenodd" clip-rule="evenodd" d="M72 57C71.4477 57 71 56.5523 71 56L71 45C71 44.4477 71.4477 44 72 44C72.5523 44 73 44.4477 73 45L73 56C73 56.5523 72.5523 57 72 57Z" fill="white"/>
<path fill-rule="evenodd" clip-rule="evenodd" d="M76 63C75.4477 63 75 62.5523 75 62L75 39C75 38.4477 75.4477 38 76 38C76.5523 38 77 38.4477 77 39L77 62C77 62.5523 76.5523 63 76 63Z" fill="white"/>
<path fill-rule="evenodd" clip-rule="evenodd" d="M67 83C67 82.4477 67.4477 82 68 82L79 82C79.5523 82 80 82.4477 80 83C80 83.5523 79.5523 84 79 84L68 84C67.4477 84 67 83.5523 67 83Z" fill="white"/>
<path fill-rule="evenodd" clip-rule="evenodd" d="M81 83C81 82.4477 81.4477 82 82 82L92 82C92.5523 82 93 82.4477 93 83C93 83.5523 92.5523 84 92 84L82 84C81.4477 84 81 83.5523 81 83Z" fill="white"/>
<path fill-rule="evenodd" clip-rule="evenodd" d="M67 79C67 78.4477 67.4477 78 68 78L84 78C84.5523 78 85 78.4477 85 79C85 79.5523 84.5523 80 84 80L68 80C67.4477 80 67 79.5523 67 79Z" fill="white"/>
<path fill-rule="evenodd" clip-rule="evenodd" d="M86 79C86 78.4477 86.4477 78 87 78L92 78C92.5523 78 93 78.4477 93 79C93 79.5523 92.5523 80 92 80L87 80C86.4477 80 86 79.5523 86 79Z" fill="white"/>
<path fill-rule="evenodd" clip-rule="evenodd" d="M67 75C67 74.4477 67.4477 74 68 74L73 74C73.5523 74 74 74.4477 74 75C74 75.5523 73.5523 76 73 76L68 76C67.4477 76 67 75.5523 67 75Z" fill="white"/>
<path fill-rule="evenodd" clip-rule="evenodd" d="M75 75C75 74.4477 75.4477 74 76 74L83 74C83.5523 74 84 74.4477 84 75C84 75.5523 83.5523 76 83 76L76 76C75.4477 76 75 75.5523 75 75Z" fill="white"/>
<path fill-rule="evenodd" clip-rule="evenodd" d="M85 75C85 74.4477 85.4477 74 86 74L92 74C92.5523 74 93 74.4477 93 75C93 75.5523 92.5523 76 92 76L86 76C85.4477 76 85 75.5523 85 75Z" fill="white"/>
<path fill-rule="evenodd" clip-rule="evenodd" d="M67 87C67 86.4477 67.4477 86 68 86L85 86C85.5523 86 86 86.4477 86 87C86 87.5523 85.5523 88 85 88L68 88C67.4477 88 67 87.5523 67 87Z" fill="white"/>
<path fill-rule="evenodd" clip-rule="evenodd" d="M87 87C87 86.4477 87.4477 86 88 86L92 86C92.5523 86 93 86.4477 93 87C93 87.5523 92.5523 88 92 88L88 88C87.4477 88 87 87.5523 87 87Z" fill="white"/>
<path fill-rule="evenodd" clip-rule="evenodd" d="M67 91C67 90.4477 67.4477 90 68 90L74 90C74.5523 90 75 90.4477 75 91C75 91.5523 74.5523 92 74 92L68 92C67.4477 92 67 91.5523 67 91Z" fill="white"/>
</g>
<defs>
<clipPath id="clip0_6_471">
<rect width="628" height="160" fill="white"/>
</clipPath>
</defs>
</svg>
