<svg width="128" height="128" viewBox="0 0 128 128" fill="none" xmlns="http://www.w3.org/2000/svg">
<circle cx="64" cy="64" r="60" fill="white"/>
<path fill-rule="evenodd" clip-rule="evenodd" d="M48 32C48 24.483 54.9355 18 64 18C73.0645 18 80 24.483 80 32V34V44C80 45.1046 80.8954 46 82 46C83.1046 46 84 45.1046 84 44V34V32C84 21.8439 74.8177 14 64 14C53.1823 14 44 21.8439 44 32V52C44 53.1046 44.8954 54 46 54H80V72C80 79.517 73.0645 86 64 86C54.9355 86 48 79.517 48 72L48 70L48 60C48 58.8954 47.1046 58 46 58C44.8954 58 44 58.8954 44 60V70V72C44 81.5243 52.0754 89.0152 62.002 89.9103C62.0007 89.94 62 89.9699 62 90V100.033C51.8934 100.365 44 103.186 44 106.618V108.382C44 112.037 52.9543 115 64 115C75.0457 115 84 112.037 84 108.382V106.618C84 103.186 76.1066 100.365 66 100.033V90C66 89.9699 65.9993 89.94 65.998 89.9103C75.9246 89.0152 84 81.5243 84 72V52C84 50.8954 83.1046 50 82 50H48L48 32Z" fill="black"/>
<path fill-rule="evenodd" clip-rule="evenodd" d="M64 44C63.4477 44 63 43.5523 63 43L63 26C63 25.4477 63.4477 25 64 25C64.5523 25 65 25.4477 65 26L65 43C65 43.5523 64.5523 44 64 44Z" fill="black"/>
<path fill-rule="evenodd" clip-rule="evenodd" d="M68 47C67.4477 47 67 46.5523 67 46L67 23C67 22.4477 67.4477 22 68 22C68.5523 22 69 22.4477 69 23L69 46C69 46.5523 68.5523 47 68 47Z" fill="black"/>
<path fill-rule="evenodd" clip-rule="evenodd" d="M72 40C71.4477 40 71 39.5523 71 39L71 30C71 29.4477 71.4477 29 72 29C72.5523 29 73 29.4477 73 30L73 39C73 39.5523 72.5523 40 72 40Z" fill="black"/>
<path fill-rule="evenodd" clip-rule="evenodd" d="M52 36C51.4477 36 51 35.5523 51 35L51 34C51 33.4477 51.4477 33 52 33C52.5523 33 53 33.4477 53 34L53 35C53 35.5523 52.5523 36 52 36Z" fill="black"/>
<path fill-rule="evenodd" clip-rule="evenodd" d="M76 37C75.4477 37 75 36.5523 75 36L75 33C75 32.4477 75.4477 32 76 32C76.5523 32 77 32.4477 77 33L77 36C77 36.5523 76.5523 37 76 37Z" fill="black"/>
<path fill-rule="evenodd" clip-rule="evenodd" d="M56 41C55.4477 41 55 40.5523 55 40L55 29C55 28.4477 55.4477 28 56 28C56.5523 28 57 28.4477 57 29L57 40C57 40.5523 56.5523 41 56 41Z" fill="black"/>
<path fill-rule="evenodd" clip-rule="evenodd" d="M60 47C59.4477 47 59 46.5523 59 46L59 23C59 22.4477 59.4477 22 60 22C60.5523 22 61 22.4477 61 23L61 46C61 46.5523 60.5523 47 60 47Z" fill="black"/>
<path fill-rule="evenodd" clip-rule="evenodd" d="M51 67C51 66.4477 51.4477 66 52 66L63 66C63.5523 66 64 66.4477 64 67C64 67.5523 63.5523 68 63 68L52 68C51.4477 68 51 67.5523 51 67Z" fill="black"/>
<path fill-rule="evenodd" clip-rule="evenodd" d="M65 67C65 66.4477 65.4477 66 66 66L76 66C76.5523 66 77 66.4477 77 67C77 67.5523 76.5523 68 76 68L66 68C65.4477 68 65 67.5523 65 67Z" fill="black"/>
<path fill-rule="evenodd" clip-rule="evenodd" d="M51 63C51 62.4477 51.4477 62 52 62L68 62C68.5523 62 69 62.4477 69 63C69 63.5523 68.5523 64 68 64L52 64C51.4477 64 51 63.5523 51 63Z" fill="black"/>
<path fill-rule="evenodd" clip-rule="evenodd" d="M70 63C70 62.4477 70.4477 62 71 62L76 62C76.5523 62 77 62.4477 77 63C77 63.5523 76.5523 64 76 64L71 64C70.4477 64 70 63.5523 70 63Z" fill="black"/>
<path fill-rule="evenodd" clip-rule="evenodd" d="M51 59C51 58.4477 51.4477 58 52 58L57 58C57.5523 58 58 58.4477 58 59C58 59.5523 57.5523 60 57 60L52 60C51.4477 60 51 59.5523 51 59Z" fill="black"/>
<path fill-rule="evenodd" clip-rule="evenodd" d="M59 59C59 58.4477 59.4477 58 60 58L67 58C67.5523 58 68 58.4477 68 59C68 59.5523 67.5523 60 67 60L60 60C59.4477 60 59 59.5523 59 59Z" fill="black"/>
<path fill-rule="evenodd" clip-rule="evenodd" d="M69 59C69 58.4477 69.4477 58 70 58L76 58C76.5523 58 77 58.4477 77 59C77 59.5523 76.5523 60 76 60L70 60C69.4477 60 69 59.5523 69 59Z" fill="black"/>
<path fill-rule="evenodd" clip-rule="evenodd" d="M51 71C51 70.4477 51.4477 70 52 70L69 70C69.5523 70 70 70.4477 70 71C70 71.5523 69.5523 72 69 72L52 72C51.4477 72 51 71.5523 51 71Z" fill="black"/>
<path fill-rule="evenodd" clip-rule="evenodd" d="M71 71C71 70.4477 71.4477 70 72 70L76 70C76.5523 70 77 70.4477 77 71C77 71.5523 76.5523 72 76 72L72 72C71.4477 72 71 71.5523 71 71Z" fill="black"/>
<path fill-rule="evenodd" clip-rule="evenodd" d="M51 75C51 74.4477 51.4477 74 52 74L58 74C58.5523 74 59 74.4477 59 75C59 75.5523 58.5523 76 58 76L52 76C51.4477 76 51 75.5523 51 75Z" fill="black"/>
</svg>
